<svg width="147" height="52" viewBox="0 0 147 52" fill="none" xmlns="http://www.w3.org/2000/svg">
<path d="M46.5769 3.77101C46.5769 3.77592 46.5802 3.78082 46.5802 3.78736C46.5802 3.79226 46.5769 3.79716 46.5769 3.8037V23.6552H46.5736C46.572 24.417 22.9479 25.0331 22.1804 25.0331L22.1772 25.0325V25.0341H2.26857C2.24912 25.0347 2.22967 25.0407 2.20777 25.0407C1.43722 25.0407 0.813952 24.4203 0.813952 23.6549C0.813952 23.6247 0.810685 23.6096 0.813952 23.5798V23.5668C1.53704 12.2827 10.5701 3.24905 21.9007 2.431L22.1807 2.40796C22.9397 2.40796 46.5575 3.00471 46.5739 3.75384H46.5772L46.5769 3.77101ZM2.21289 50.9622C1.45389 50.9622 0.836099 50.3653 0.816632 49.5666L0.819903 29.7153C0.821535 28.9541 1.4456 28.338 2.21615 28.3356C2.21615 28.3356 22.1641 28.329 22.1861 28.329C22.9566 28.329 23.5799 28.9494 23.5799 29.7148C23.5799 29.745 23.5832 29.7601 23.5799 29.8031C22.8568 41.0872 13.8238 50.1205 2.49309 50.9393L2.21289 50.9622Z" fill="#FF8100"/>
<path d="M70.7633 24.2954L65.9285 20.9595C65.7877 20.9736 65.5695 20.9806 65.274 20.9806C63.8101 20.9806 62.5645 20.678 61.537 20.0728C60.5236 19.4676 59.7565 18.6301 59.2357 17.5604C58.7149 16.4766 58.4545 15.2239 58.4545 13.8023C58.4545 12.2259 58.7712 10.9098 59.4046 9.85418C60.038 8.78447 60.8755 7.99625 61.917 7.48955C62.9727 6.96876 64.1409 6.70837 65.4217 6.70837C66.8856 6.70837 68.1242 7.01099 69.1376 7.61622C70.1651 8.22146 70.9322 9.06597 71.4389 10.1498C71.9597 11.2195 72.2201 12.4651 72.2201 13.8867C72.2201 15.2661 71.9245 16.4766 71.3333 17.5181C70.7422 18.5456 69.954 19.362 68.9687 19.9672L72.4101 21.7196L70.7633 24.2954ZM61.537 13.7812C61.537 15.2731 61.8537 16.4414 62.4871 17.2859C63.1204 18.1163 64.0494 18.5316 65.274 18.5316C66.1044 18.5316 66.8082 18.3486 67.3852 17.9826C67.9764 17.6026 68.4127 17.0677 68.6942 16.378C68.9898 15.6743 69.1376 14.8509 69.1376 13.9078C69.1376 12.4159 68.8209 11.2547 68.1875 10.4242C67.5541 9.57972 66.6322 9.15746 65.4217 9.15746C64.155 9.15746 63.1908 9.57268 62.5293 10.4031C61.8678 11.2195 61.537 12.3455 61.537 13.7812ZM80.1286 20.9806C78.7493 20.9806 77.6162 20.7273 76.7295 20.2206C75.8427 19.6998 75.1953 19.0031 74.7871 18.1304C74.393 17.2437 74.1959 16.2373 74.1959 15.1113V7.00395H77.194V14.7524C77.194 15.9347 77.4262 16.8566 77.8907 17.5181C78.3552 18.1656 79.1645 18.4893 80.3187 18.4893C81.4165 18.4893 82.1907 18.1656 82.6411 17.5181C83.0915 16.8566 83.3167 16.0051 83.3167 14.9635V7.00395H86.3147V15.0479C86.3147 16.4414 86.0473 17.5815 85.5124 18.4682C84.9775 19.3409 84.2456 19.9813 83.3167 20.3895C82.4018 20.7836 81.3391 20.9806 80.1286 20.9806ZM95.9017 7.00395L100.821 20.5162V20.6851H97.633L96.5351 17.4126H91.468L90.3913 20.6851H87.2455V20.5162L92.1648 7.00395H95.9017ZM92.2703 15.0057H95.7328L93.9805 9.79084L92.2703 15.0057ZM113.446 20.5162V20.6851H110.131L106.732 15.7024H105.592V20.6851H102.594V7.00395H107.175C108.386 7.00395 109.392 7.19397 110.194 7.574C111.011 7.93995 111.616 8.44666 112.01 9.09412C112.404 9.72751 112.601 10.4524 112.601 11.2687C112.601 12.2259 112.362 13.0563 111.883 13.7601C111.405 14.4497 110.701 14.9635 109.772 15.3013L113.446 20.5162ZM105.592 13.4434H106.88C107.724 13.4434 108.372 13.2815 108.822 12.9578C109.287 12.634 109.519 12.0992 109.519 11.3532C109.519 10.7057 109.315 10.2201 108.907 9.89641C108.498 9.57268 107.928 9.41081 107.196 9.41081H105.592V13.4434ZM122.684 7.00395L127.604 20.5162V20.6851H124.416L123.318 17.4126H118.251L117.174 20.6851H114.028V20.5162L118.948 7.00395H122.684ZM119.053 15.0057H122.516L120.763 9.79084L119.053 15.0057ZM68.3142 34.4319H62.1704V37.8522H67.4697L67.1319 40.2591H62.1704V45.6851H59.1723V32.004H68.3142V34.4319ZM70.3679 45.6851V32.004H73.3659V45.6851H70.3679ZM88.5282 32.004V45.6851H85.2769L80.991 39.309C80.625 38.746 80.3154 38.2604 80.062 37.8522C79.8086 37.4299 79.5623 36.9584 79.3231 36.4376V45.6851H76.3884V32.004H79.6186L84.2846 39.0134C84.3409 39.0979 84.4675 39.2949 84.6646 39.6046C84.8616 39.9001 85.0376 40.1817 85.1924 40.4491C85.3613 40.7165 85.5021 40.9769 85.6147 41.2303V32.004H88.5282ZM98.9326 32.004L103.852 45.5162V45.6851H100.664L99.566 42.4126H94.4989L93.4221 45.6851H90.2763V45.5162L95.1956 32.004H98.9326ZM95.3012 40.0057H98.7637L97.0113 34.7908L95.3012 40.0057ZM117.765 32.004V45.6851H114.513L110.227 39.309C109.861 38.746 109.552 38.2604 109.298 37.8522C109.045 37.4299 108.799 36.9584 108.559 36.4376V45.6851H105.625V32.004H108.855L113.521 39.0134C113.577 39.0979 113.704 39.2949 113.901 39.6046C114.098 39.9001 114.274 40.1817 114.429 40.4491C114.598 40.7165 114.738 40.9769 114.851 41.2303V32.004H117.765ZM126.67 45.9806C124.376 45.9806 122.694 45.3473 121.624 44.0805C120.568 42.7996 120.04 41.0895 120.04 38.9501C120.04 37.2188 120.336 35.8183 120.927 34.7486C121.518 33.6648 122.3 32.8907 123.271 32.4262C124.256 31.9477 125.361 31.7084 126.585 31.7084C127.444 31.7084 128.232 31.8139 128.95 32.0251C129.668 32.2221 130.386 32.5318 131.104 32.954L129.985 35.1709C128.985 34.5234 127.901 34.1997 126.733 34.1997C124.354 34.1997 123.165 35.7268 123.165 38.7812C123.165 40.3013 123.496 41.4555 124.157 42.2437C124.819 43.0319 125.755 43.426 126.965 43.426C127.585 43.426 128.127 43.3486 128.591 43.1937C129.056 43.0248 129.541 42.7926 130.048 42.497L131.209 44.6083C130.449 45.0587 129.703 45.4036 128.971 45.6428C128.253 45.868 127.486 45.9806 126.67 45.9806ZM135.962 43.236H142.212V45.6851H132.964V32.004H142.106V34.4319H135.962V37.5144H141.261L140.924 39.9213H135.962V43.236Z" fill="white"/>
</svg>
